<?xml version="1.0" encoding="UTF-8"?>
<svg xmlns="http://www.w3.org/2000/svg" version="1.1" viewBox="0 0 44 44">
  <defs>
    <style>
      .cls-1 {
        fill: #117fa9;
      }

      .cls-1, .cls-2, .cls-3 {
        fill-rule: evenodd;
      }

      .cls-2, .cls-4 {
        fill: #b2b2b2;
      }

      .cls-3 {
        fill: #a4a5a5;
      }

      .cls-5 {
        fill: #086593;
      }
    </style>
  </defs>
  <!-- Generator: Adobe Illustrator 28.7.1, SVG Export Plug-In . SVG Version: 1.2.0 Build 142)  -->
  <g>
    <g id="Layer_1">
      <g>
        <g>
          <path class="cls-1" d="M25.1,19.9c-.2,0-.6,0-1,0-.4,0-.6-.1-.6-.5,0-1.8,0-3.6-.3-5.4-.2-1.4-.4-2.7-.7-4-.1-.4,0-.7.4-.9,4.5-2.4,9.2-3.7,14.2-4.2,1.2-.1,1.2,0,1.1,1.1-.3,5.1-1.9,9.9-3.6,14.7-.2.4-.3.8-.5,1.2-.1.4-.3.5-.8.3-2.5-1.5-5.2-2.2-8.3-2.2Z"/>
          <path class="cls-1" d="M22.1,24.7c0,1.8-.2,3.6-.4,5.3,0,.4-.2.6-.6.5-1.9-.3-3.8-.5-5.7-.5-.4,0-.5-.2-.6-.6-.2-1.7-.4-3.5-.9-5.1-.1-.5-.3-1-.5-1.5-.2-.3,0-.5.2-.6,2.3-.5,4.6-1,6.9-.8,1.2,0,1.4.3,1.4,1.5,0,.6.1,1.2,0,1.7Z"/>
          <path class="cls-1" d="M13.7,36.3c-.2.9-.3.9-1.2.8-1.4-.2-2.8-.3-4.3-.4-.6,0-.8-.2-.7-.8,0,0,0,0,0-.1,0,0,0,0,0-.1.3-2.7.1-4.4.1-4.4h0c0-.3.2-.4.5-.4.8,0,1.6,0,2.4,0h0c.8,0,1.5,0,2.3,0,.4,0,.7.2.8.6.3,1.6.4,3.2,0,4.8Z"/>
        </g>
        <path class="cls-3" d="M13.1,29.4c-.1,0-.3,0-.5,0,.2,0,.3,0,.5,0Z"/>
        <g>
          <path class="cls-2" d="M22,18c0,.5,0,.9,0,1.4,0,.4-.1.5-.5.5-2.6,0-5.3.3-7.9.8-.3,0-.6,0-.8.2-.6.3-.9,0-1.1-.5-.9-1.9-1.9-3.6-3.4-5-.2-.2-.5-.4-.8-.6-.3-.2-.3-.4,0-.6,2.6-1.4,5.3-2.6,8.2-3.4,1.2-.3,2.5-.5,3.7-.7.5,0,.8.2,1.1.6.6.9.8,2,1,3,.3,1.4.4,2.8.4,4.3Z"/>
          <path class="cls-2" d="M33,27.1c0,2-.8,4.5-1.9,7.1-.2.5-.5,1-.7,1.5-.2.4-.3.5-.7.2-.9-.8-1.8-1.7-2.8-2.4-1-.7-2.1-1.4-3.3-1.8-.3,0-.4-.3-.4-.6,0-.7.1-1.5.3-2.2.3-1.9.2-3.9.2-5.8,0-.9,0-.9.8-.9,2.1,0,4.1.2,6.1.8.2,0,.3.1.5.2,1.5.6,1.8,1.1,1.8,3.9Z"/>
          <path class="cls-2" d="M15.8,31.4c1.3.2,2.7.3,4,.7,1.2.4,1.4.5,1.4,1.8,0,1.6-.1,3.3-.6,4.9-.1.4-.3.6-.8.4-1.3-.6-2.7-1.1-4.1-1.3-.5,0-.6-.3-.6-.7.1-1.1.1-2.2.1-3.3,0-.6,0-1.1-.1-1.7,0-.7-.1-.7.7-.7Z"/>
          <path class="cls-4" d="M13.1,29.4s0,0,0,0c-.2,0-.3,0-.5,0,0,0,0,0,0,0-1.9-.1-3.9,0-4.3,0,0,0,0,0,0,0,0,0,0,0,0,0-.3,0-.5-.2-.5-.5-.4-1.8-1-3.5-1.8-5.2-.2-.5,0-.6.4-.6,1.2-.1,2.3-.3,3.5-.4.4,0,.7,0,1.1-.1.4,0,.6.1.7.5.7,1.7,1.4,3.3,1.8,5.1,0,0,0,.2,0,.2,0,.8,0,1-.4,1Z"/>
        </g>
        <path class="cls-5" d="M13.1,29.4h0s0,0,0,0c0,0,0,0,0,0Z"/>
      </g>
    </g>
  </g>
</svg>