<?xml version="1.0" encoding="UTF-8"?>
<svg xmlns="http://www.w3.org/2000/svg" version="1.1" viewBox="0 0 44 44">
  <defs>
    <style>
      .cls-1 {
        fill: #c6c6c6;
      }
    </style>
  </defs>
  <!-- Generator: Adobe Illustrator 28.7.1, SVG Export Plug-In . SVG Version: 1.2.0 Build 142)  -->
  <g>
    <g id="Layer_1">
      <g>
        <path class="cls-1" d="M16.1,28.2v-3.1h3.3v-1.6c0,0-.1,0-.2,0-2.6,0-5.3,0-7.9,0-.2,0-.2,0-.2.2,0,.4,0,.9,0,1.4,0,0,.2,0,.2,0,1,0,1.9,0,2.9,0,.2,0,.2,0,.2.2,0,.9,0,1.8,0,2.7,0,.2,0,.2-.2.2-3.4,0-6.7,0-10.1,0,0,0-.1,0-.2,0v-3.1c0,0,.1,0,.2,0,1,0,1.9,0,2.9,0,.2,0,.2,0,.2-.2,0-.4,0-.8,0-1.2,0-.2,0-.2-.2-.2-1,0-1.9,0-2.9,0,0,0-.1,0-.2,0v-3.1h3.3v-1.6c0,0-.1,0-.2,0-1,0-1.9,0-2.9,0-.1,0-.2,0-.2-.2,0-.9,0-1.8,0-2.7,0,0,0-.1,0-.2h10.5v3.1h-3.3c0,0,0,.1,0,.2,0,.4,0,.8,0,1.2,0,.2,0,.2.2.2,1.4,0,2.8,0,4.3,0,1.2,0,2.4,0,3.6,0,0,0,.1,0,.2,0v-1.6h-3.3v-3.1h10.1v3.1h-3.3v1.6h3.3v3.1c0,0-.1,0-.2,0-1,0-1.9,0-2.9,0-.2,0-.2,0-.2.2,0,.5,0,.9,0,1.4h3.3v3.1h-10.1Z"/>
        <path class="cls-1" d="M32.7,18.8v-3.1h7.3c0,0,0,.1,0,.2,0,1.1,0,2.1,0,3.2,0,0,0,.2,0,.3-.6.8-1.2,1.6-1.8,2.5,0,0,0,.1-.1.2h2v6.3h-7.3v-3.1h3.7v-1.6h-3.7v-3.1c0,0,.1,0,.2,0,1.1,0,2.2,0,3.3,0,.2,0,.2,0,.2-.2,0-.5,0-.9,0-1.4h-3.8Z"/>
        <path class="cls-1" d="M27.8,18.8v-3.1h3.3v3.1h-3.3Z"/>
        <path class="cls-1" d="M31.2,23.5s0,0-.1,0c-1,0-2,0-3,0-.1,0-.2,0-.2-.2,0-.9,0-1.8,0-2.7,0,0,0-.1,0-.2h3.3v3.1Z"/>
        <path class="cls-1" d="M27.9,25.2h3.3v3.1h-3.3v-3.1Z"/>
      </g>
    </g>
  </g>
</svg>