<?xml version="1.0" encoding="UTF-8"?>
<svg xmlns="http://www.w3.org/2000/svg" version="1.1" viewBox="0 0 1080 1080">
  <defs>
    <style>
      .cls-1 {
        fill: #fff;
      }
    </style>
  </defs>
  <!-- Generator: Adobe Illustrator 28.7.1, SVG Export Plug-In . SVG Version: 1.2.0 Build 142)  -->
  <g>
    <g id="Layer_1">
      <g>
        <path class="cls-1" d="M1079.7,554.7c0,2.1-.1,4.1-.2,6.2,0,1,0,2-.1,3,0,1.7-.1,3.4-.2,5.1-.4,7.1-.9,14.2-1.5,21.2-.2,1.9-.3,3.8-.5,5.6-11.3,113.2-54.4,212.3-128.3,296.9-.8,1-1.7,1.9-2.5,2.9-12.9,14.6-26.8,28.8-41.6,42.5-1,.9-2,1.8-3,2.7,0,0-.1.1-.2.2-71.8,65.7-156.3,107.7-251.6,127.9v-.2c-.4-197.8-.7-395.1-1.1-592.4.4-.3.8-.6,1.1-.9.6,1,1,2.1,1.7,3,68.6,82.2,136.1,165.3,200.2,251.1,3.2,4.3,3.3,4.3,8.3,2.3,20-8.1,39.9-16.2,59.9-24.2,1.8-.7,2.6-1.5,2.6-3.6-.2-16.4-.3-32.7-.4-49.1-.2-54.4-.3-108.8-.4-163.3,0-19.1,0-38.3.2-57.4.1-22.6.4-45.3.6-67.9,0-4.1,0-8.2.3-12.3,0-1.8-.6-2.4-2.4-2.4-27.6,0-55.1,0-82.7,0-.6,0-1.1.1-2.2.3.6,79.1,1.3,158.1,1.9,237.1-.3,0-.7.2-1,.3-.8-.8-1.5-1.6-2.3-2.4-56.7-66.5-111.9-134.2-166.8-202.1-9.8-12.1-19.7-24.2-29.5-36.3-1.4-1.7-2.6-2.1-4.7-1.2-22.5,9.1-45,18.2-67.6,27.1-2,.8-2.8,1.8-2.8,4,.3,30.8.6,61.6.8,92.4.2,49.5.3,99,.3,148.6,0,23.3-.5,46.7-.5,70-.2,128.9-.4,257.9-.5,386.8v3.4c-65.7,2.6-129.5-5.8-191.6-26.4-.7-.2-1.5-.5-2.2-.7-.7-.2-1.5-.5-2.2-.7-1.5-.5-2.9-1-4.4-1.5-3.7-1.3-7.3-2.6-10.9-3.9-3.6-1.3-7.2-2.7-10.8-4.2-1.9-.8-3.8-1.5-5.7-2.3-1.8-.7-3.6-1.5-5.3-2.2-1.8-.8-3.7-1.6-5.5-2.4-.4-.2-.9-.4-1.3-.6-.6-.2-1.2-.5-1.7-.8-1.1-.5-2.2-1-3.3-1.5,0,0-.2,0-.2-.1-55.9-25.1-106-58.8-150.2-101.3-1.1-1.1-2.3-2.2-3.4-3.3-.8-.8-1.7-1.6-2.5-2.4-1.2-1.1-2.3-2.3-3.5-3.4-1.1-1.1-2.1-2.1-3.1-3.2-2.1-2.2-4.3-4.4-6.4-6.6-.8-.9-1.7-1.8-2.5-2.7-1-1-2-2.1-2.9-3.1-3.9-4.2-7.7-8.5-11.5-12.9-10.5-12.1-20.2-24.4-29.3-36.9-.8-1.1-1.6-2.3-2.4-3.4-.5-.7-1-1.5-1.6-2.2-.9-1.2-1.7-2.4-2.6-3.7-.9-1.3-1.8-2.6-2.7-3.9-.9-1.3-1.8-2.6-2.7-3.9-.9-1.3-1.7-2.5-2.5-3.8-1-1.5-2-3.1-3-4.6-1.2-1.8-2.3-3.7-3.5-5.5-30-47.8-50.4-97.1-63.3-145.5-.4-1.7-.9-3.4-1.3-5-.5-2.1-1.1-4.2-1.6-6.4,0-.2,0-.3-.1-.5-.4-1.6-.8-3.2-1.1-4.8-.4-1.5-.7-3-1-4.5-.6-2.6-1.1-5.1-1.7-7.7C3.2,611.4-.3,572.6,0,536.1c0-.9,0-1.9,0-2.8,0-.9,0-1.8,0-2.7,0-.7,0-1.3,0-2,0,0,0-.1,0-.2,0-.2,0-.4,0-.6,0-1,0-2,0-3,0-1.2,0-2.5.1-3.7,0-1.7.1-3.5.2-5.2,0-.1,0-.2,0-.4,0-.6,0-1.2,0-1.8,0-.6,0-1.3,0-1.9,0-1.3.1-2.5.2-3.8,0-.5,0-1.1,0-1.6,0-1.2.2-2.4.2-3.6,0-.4,0-.9.1-1.3.2-3.2.5-6.3.8-9.5,0-.2,0-.4,0-.5,0-1,.2-1.9.3-2.8.1-1.4.3-2.7.4-4.1.2-2,.4-3.9.6-5.9.9-7.9,2-15.6,3.2-23.2.3-1.8.6-3.6.9-5.4.3-1.7.6-3.4.9-5.2,0-.2,0-.4,0-.6.3-1.8.7-3.5,1-5.2.3-1.4.6-2.8.8-4.2,0,0,0-.1,0-.2.2-1,.4-2.1.7-3.1.2-1.1.5-2.1.7-3.2h3.7c74.6,0,149.3,0,223.9,0,30.2,0,60.3-.6,90.5-.9,9.5,0,19,0,29.4,0-1.1,1.6-1.6,2.5-2.2,3.3-56.4,71.1-113.1,142-172.2,211-8.5,10-17.2,19.9-25.9,29.7-1.4,1.6-1.7,2.9-.8,4.9,7.4,16.3,14.8,32.7,22,49,1,2.3,2.3,3.1,4.8,3.1,60.9-.2,121.8-.4,182.7-.5,35.8,0,71.6,0,107.4.2,7.6,0,15.3.1,22.9.2h3.4v-76.7h-210.4c1-1.5,1.5-2.5,2.2-3.4,18.6-22.5,37.3-45,56-67.5,42.1-50.9,84.2-101.8,126.4-152.7,5.6-6.7,11.2-13.4,16.9-20,1.2-1.4,1.6-2.5.7-4.3-7.9-16.1-15.6-32.2-23.3-48.4-1.2-2.5-2.6-3.3-5.3-3.3-51,.2-102,.3-153,.4-20.8,0-41.6,0-62.4-.1-24,0-48-.3-72.1-.4-46.4,0-92.8,0-139.2.1h-4.6c1.3-3.3,2.6-6.6,3.9-9.8,0-.2.1-.3.2-.5,13.9-34.3,30.4-66.3,49.7-96.1.7-1.1,1.4-2.1,2.1-3.2,28-42.7,61.6-80.7,101.1-114,.8-.7,1.5-1.3,2.3-1.9,0,0,.1-.1.2-.2,16.5-13.8,34.1-26.8,52.7-38.9,14.9-9.8,30.1-18.7,45.5-26.8C368.3,20,451.3-.2,539.3,0h.6c.5,0,1,0,1.5,0,.4,0,.9,0,1.3,0,9.8,0,19.8.4,29.7,1,27.5,1.6,54.3,5.3,80.3,10.8,1.7.4,3.5.7,5.2,1.1,1.5.3,3,.7,4.5,1,248.9,57.2,425.5,284.1,417.3,540.7Z"/>
        <path d="M501.5,651.7v76.7h-3.4c-7.6,0-15.3-.2-22.9-.2-35.8,0-71.6-.2-107.4-.2-60.9,0-121.8.3-182.7.5-2.5,0-3.8-.7-4.8-3.1-7.2-16.4-14.6-32.7-22-49-.9-2-.7-3.3.8-4.9,8.7-9.9,17.3-19.7,25.9-29.7,59.1-69,115.8-139.8,172.2-211,.6-.8,1.1-1.6,2.2-3.3-10.4,0-19.9,0-29.4,0-30.2.3-60.3.9-90.5.9-74.6.1-149.3,0-223.9,0h-4.1c5.5-26.2,12.9-51.7,22-76.3h4.4c46.4,0,92.8-.2,139.2-.1,24,0,48,.3,72.1.4,20.8,0,41.6.1,62.4.1,51,0,102-.2,153-.4,2.7,0,4.2.7,5.3,3.3,7.7,16.2,15.4,32.3,23.3,48.4.9,1.8.5,2.9-.7,4.3-5.7,6.6-11.3,13.3-16.9,20-42.1,50.9-84.2,101.8-126.4,152.7-18.6,22.5-37.3,45-56,67.5-.7.8-1.2,1.8-2.2,3.4h210.4Z"/>
        <path d="M922.3,654.8c0,16.4.2,32.7.4,49.1,0,2.1-.8,2.8-2.6,3.6-20,8-39.9,16.1-59.9,24.2-5.1,2-5.1,2.1-8.3-2.3-64.1-85.8-131.6-168.9-200.2-251.1-.7-.9-1.2-2-1.7-3-.4.3-.8.6-1.1.9.3,197.3.7,394.6,1.1,592.4-28.2,5.8-57.3,9.5-87,10.7v-3.3c.2-128.9.3-257.9.5-386.8,0-23.3.5-46.7.5-70,0-49.5-.1-99-.3-148.6-.1-30.8-.5-61.6-.8-92.4,0-2.3.8-3.2,2.8-4,22.6-9,45.1-18,67.6-27.1,2.1-.8,3.3-.5,4.7,1.2,9.8,12.1,19.7,24.2,29.5,36.3,54.9,68,110.1,135.6,166.8,202.1.7.8,1.5,1.6,2.3,2.4.3,0,.7-.2,1-.3-.6-79-1.3-158-1.9-237.1,1.1-.2,1.7-.3,2.2-.3,27.6,0,55.1,0,82.7,0,1.8,0,2.5.5,2.4,2.4-.2,4.1-.2,8.2-.3,12.3-.2,22.6-.4,45.3-.6,67.9-.1,19.1-.2,38.3-.2,57.4,0,54.4.3,108.8.4,163.3Z"/>
      </g>
    </g>
  </g>
</svg>